<?xml version="1.0" encoding="UTF-8"?>
<svg xmlns="http://www.w3.org/2000/svg" xmlns:xlink="http://www.w3.org/1999/xlink" width="384px" height="384px" viewBox="0 0 384 384" version="1.1">
<g id="surface1">
<path style=" stroke:none;fill-rule:nonzero;fill:rgb(30.980392%,27.45098%,89.803922%);fill-opacity:1;" d="M 0 192.007812 C 0 298.054688 85.953125 384 192 384 C 298.046875 384 384 298.054688 384 192.007812 C 384.007812 85.960938 298.046875 0 192 0 C 85.953125 0 0 85.960938 0 192.007812 Z M 0 192.007812 "/>
<path style=" stroke:none;fill-rule:nonzero;fill:rgb(95.686275%,96.470588%,97.647059%);fill-opacity:1;" d="M 297.601562 141.859375 L 297.601562 141.625 C 297.601562 138.96875 295.453125 136.9375 292.796875 136.9375 C 290.148438 136.9375 288 139.203125 288 141.859375 C 288 157.3125 277.492188 170.648438 263.015625 173.554688 C 262.835938 173.59375 262.703125 173.703125 262.539062 173.757812 C 258.429688 162.054688 251.390625 154.078125 243.210938 148.617188 C 244.242188 145.125 244.796875 141.570312 244.796875 138.007812 C 244.796875 122.75 235.585938 109.265625 221.59375 101.273438 C 221.53125 101.140625 221.53125 100.992188 221.460938 100.859375 C 220.804688 99.71875 220.476562 98.492188 220.476562 97.21875 C 220.476562 92.5625 224.929688 88.773438 230.40625 88.773438 C 233.054688 88.773438 235.203125 86.625 235.203125 83.976562 C 235.203125 81.320312 233.054688 79.171875 230.40625 79.171875 C 219.859375 79.171875 211.289062 86.953125 210.9375 96.625 C 205.054688 94.710938 198.679688 93.625 192 93.625 C 185.296875 93.625 178.90625 94.71875 173.007812 96.640625 C 172.664062 86.96875 164.09375 79.179688 153.539062 79.179688 C 150.882812 79.179688 148.734375 81.320312 148.734375 83.976562 C 148.734375 86.625 150.882812 88.773438 153.539062 88.773438 C 159.015625 88.773438 163.46875 92.5625 163.46875 97.21875 C 163.46875 98.492188 163.140625 99.71875 162.484375 100.859375 C 162.398438 101.007812 162.398438 101.171875 162.328125 101.320312 C 148.382812 109.320312 139.203125 122.78125 139.203125 138.007812 C 139.203125 141.578125 139.757812 145.125 140.796875 148.617188 C 132.609375 154.078125 125.578125 162.0625 121.46875 173.757812 C 121.296875 173.703125 121.164062 173.59375 120.992188 173.5625 C 106.507812 170.648438 96 157.3125 96 141.859375 L 96 141.625 C 96 138.96875 93.851562 136.9375 91.203125 136.9375 C 88.554688 136.9375 86.40625 139.203125 86.40625 141.859375 C 86.40625 161.84375 100.109375 179.101562 119.007812 182.945312 C 118.101562 187.726562 117.601562 193 117.601562 198.820312 C 117.601562 200.75 117.671875 202.6875 117.773438 204.632812 C 117.671875 204.6875 117.554688 204.695312 117.460938 204.75 L 108.015625 210.648438 C 99.742188 215.820312 93.742188 224.046875 91.117188 233.820312 L 86.570312 250.78125 C 85.882812 253.335938 87.398438 255.96875 89.960938 256.65625 C 90.375 256.773438 90.796875 256.820312 91.203125 256.820312 C 93.328125 256.820312 95.265625 255.414062 95.84375 253.265625 L 100.390625 236.3125 C 102.382812 228.890625 106.898438 222.671875 113.109375 218.789062 L 118.78125 215.242188 C 120.453125 227.398438 123.898438 239.59375 128.78125 250.914062 L 123.929688 255.882812 C 115.210938 264.09375 110.40625 273.851562 110.40625 283.375 L 110.40625 300.023438 C 110.40625 302.679688 112.554688 304.820312 115.203125 304.820312 C 117.851562 304.820312 120.007812 302.679688 120.007812 300.023438 L 120.007812 283.375 C 120.007812 276.625 123.835938 269.15625 130.65625 262.734375 L 133.195312 260.132812 C 146.664062 285.71875 167.75 304.820312 192.007812 304.820312 C 216.257812 304.820312 237.34375 285.71875 250.820312 260.132812 L 253.5 262.875 C 260.171875 269.15625 264.007812 276.625 264.007812 283.375 L 264.007812 300.023438 C 264.007812 302.671875 266.15625 304.820312 268.804688 304.820312 C 271.453125 304.820312 273.601562 302.671875 273.601562 300.023438 L 273.601562 283.375 C 273.601562 273.851562 268.796875 264.09375 260.226562 256.03125 L 255.226562 250.914062 C 260.117188 239.59375 263.554688 227.398438 265.226562 215.242188 L 270.898438 218.789062 C 277.109375 222.664062 281.625 228.890625 283.617188 236.304688 L 288.171875 253.265625 C 288.742188 255.40625 290.6875 256.820312 292.804688 256.820312 C 293.210938 256.820312 293.632812 256.765625 294.046875 256.65625 C 296.609375 255.96875 298.125 253.335938 297.4375 250.773438 L 292.890625 233.8125 C 290.265625 224.046875 284.265625 215.820312 275.992188 210.648438 L 266.546875 204.75 C 266.453125 204.6875 266.335938 204.6875 266.242188 204.632812 C 266.335938 202.6875 266.40625 200.742188 266.40625 198.820312 C 266.40625 193 265.914062 187.726562 265 182.945312 C 283.890625 179.101562 297.601562 161.84375 297.601562 141.859375 Z M 148.796875 138.007812 C 148.796875 118.828125 168.179688 103.226562 192 103.226562 C 215.820312 103.226562 235.203125 118.828125 235.203125 138.007812 C 235.203125 139.960938 234.953125 141.929688 234.523438 143.875 C 218.617188 136.84375 200.90625 136.820312 192 136.820312 C 183.09375 136.820312 165.382812 136.84375 149.476562 143.875 C 149.046875 141.921875 148.796875 139.960938 148.796875 138.007812 Z M 127.203125 198.828125 C 127.203125 179.828125 132.75 166.398438 144.429688 157.875 L 144.460938 157.9375 L 149.078125 155.445312 C 158.640625 150.289062 171.1875 147.257812 185.632812 146.570312 C 186.140625 146.554688 186.679688 146.546875 187.203125 146.53125 L 187.203125 294.867188 C 153.5625 290.453125 127.203125 240.523438 127.203125 198.828125 Z M 196.796875 294.875 L 196.796875 146.539062 C 197.320312 146.546875 197.859375 146.554688 198.367188 146.570312 C 212.8125 147.257812 225.359375 150.289062 234.921875 155.445312 L 239.539062 157.9375 L 239.570312 157.875 C 251.25 166.40625 256.796875 179.828125 256.796875 198.828125 C 256.796875 240.523438 230.4375 290.453125 196.796875 294.875 Z M 196.796875 294.875 "/>
</g>
</svg>
