<?xml version="1.0" encoding="UTF-8"?>
<svg xmlns="http://www.w3.org/2000/svg" xmlns:xlink="http://www.w3.org/1999/xlink" width="256px" height="256px" viewBox="0 0 256 256" version="1.1">
<g id="surface1">
<path style=" stroke:none;fill-rule:nonzero;fill:rgb(30.980392%,27.45098%,89.803922%);fill-opacity:1;" d="M 0 128.003906 C 0 198.703125 57.300781 256 128 256 C 198.699219 256 256 198.703125 256 128.003906 C 256.003906 57.308594 198.699219 0 128 0 C 57.300781 0 0 57.308594 0 128.003906 Z M 0 128.003906 "/>
<path style=" stroke:none;fill-rule:nonzero;fill:rgb(95.686275%,96.470588%,97.647059%);fill-opacity:1;" d="M 198.402344 94.574219 L 198.402344 94.417969 C 198.402344 92.644531 196.96875 91.292969 195.199219 91.292969 C 193.433594 91.292969 192 92.800781 192 94.574219 C 192 104.875 184.996094 113.765625 175.34375 115.703125 C 175.222656 115.730469 175.136719 115.800781 175.027344 115.839844 C 172.285156 108.035156 167.59375 102.71875 162.140625 99.078125 C 162.828125 96.75 163.199219 94.378906 163.199219 92.003906 C 163.199219 81.832031 157.058594 72.84375 147.730469 67.515625 C 147.6875 67.425781 147.6875 67.328125 147.640625 67.238281 C 147.203125 66.480469 146.984375 65.660156 146.984375 64.8125 C 146.984375 61.707031 149.953125 59.183594 153.605469 59.183594 C 155.371094 59.183594 156.800781 57.75 156.800781 55.984375 C 156.800781 54.214844 155.371094 52.78125 153.605469 52.78125 C 146.574219 52.78125 140.859375 57.96875 140.625 64.417969 C 136.703125 63.140625 132.453125 62.417969 128 62.417969 C 123.53125 62.417969 119.269531 63.144531 115.339844 64.425781 C 115.109375 57.980469 109.394531 52.785156 102.359375 52.785156 C 100.589844 52.785156 99.15625 54.214844 99.15625 55.984375 C 99.15625 57.75 100.589844 59.183594 102.359375 59.183594 C 106.011719 59.183594 108.980469 61.707031 108.980469 64.8125 C 108.980469 65.660156 108.761719 66.480469 108.324219 67.238281 C 108.265625 67.339844 108.265625 67.449219 108.21875 67.546875 C 98.921875 72.878906 92.800781 81.855469 92.800781 92.003906 C 92.800781 94.386719 93.171875 96.75 93.863281 99.078125 C 88.40625 102.71875 83.71875 108.042969 80.980469 115.839844 C 80.863281 115.800781 80.777344 115.730469 80.660156 115.707031 C 71.003906 113.765625 64 104.875 64 94.574219 L 64 94.417969 C 64 92.644531 62.566406 91.292969 60.800781 91.292969 C 59.035156 91.292969 57.605469 92.800781 57.605469 94.574219 C 57.605469 107.894531 66.738281 119.402344 79.339844 121.964844 C 78.734375 125.152344 78.402344 128.667969 78.402344 132.546875 C 78.402344 133.832031 78.449219 135.125 78.515625 136.421875 C 78.449219 136.457031 78.371094 136.464844 78.308594 136.5 L 72.011719 140.433594 C 66.496094 143.878906 62.496094 149.363281 60.746094 155.878906 L 57.714844 167.1875 C 57.253906 168.890625 58.265625 170.644531 59.972656 171.105469 C 60.25 171.183594 60.53125 171.214844 60.800781 171.214844 C 62.21875 171.214844 63.511719 170.277344 63.894531 168.84375 L 66.925781 157.542969 C 68.253906 152.59375 71.265625 148.449219 75.40625 145.859375 L 79.1875 143.496094 C 80.300781 151.597656 82.597656 159.730469 85.855469 167.277344 L 82.621094 170.589844 C 76.808594 176.0625 73.605469 182.566406 73.605469 188.917969 L 73.605469 200.015625 C 73.605469 201.785156 75.035156 203.214844 76.800781 203.214844 C 78.566406 203.214844 80.003906 201.785156 80.003906 200.015625 L 80.003906 188.917969 C 80.003906 184.417969 82.558594 179.4375 87.105469 175.15625 L 88.796875 173.421875 C 97.777344 190.480469 111.832031 203.214844 128.003906 203.214844 C 144.171875 203.214844 158.230469 190.480469 167.214844 173.421875 L 169 175.25 C 173.449219 179.4375 176.003906 184.417969 176.003906 188.917969 L 176.003906 200.015625 C 176.003906 201.78125 177.4375 203.214844 179.203125 203.214844 C 180.96875 203.214844 182.402344 201.78125 182.402344 200.015625 L 182.402344 188.917969 C 182.402344 182.566406 179.199219 176.0625 173.484375 170.6875 L 170.152344 167.277344 C 173.410156 159.730469 175.703125 151.597656 176.816406 143.496094 L 180.597656 145.859375 C 184.738281 148.441406 187.75 152.59375 189.078125 157.535156 L 192.113281 168.84375 C 192.496094 170.269531 193.792969 171.214844 195.203125 171.214844 C 195.472656 171.214844 195.753906 171.175781 196.03125 171.105469 C 197.738281 170.644531 198.75 168.890625 198.292969 167.183594 L 195.261719 155.875 C 193.511719 149.363281 189.511719 143.878906 183.996094 140.433594 L 177.699219 136.5 C 177.636719 136.457031 177.558594 136.457031 177.496094 136.421875 C 177.558594 135.125 177.605469 133.828125 177.605469 132.546875 C 177.605469 128.667969 177.277344 125.152344 176.667969 121.964844 C 189.261719 119.402344 198.402344 107.894531 198.402344 94.574219 Z M 99.199219 92.003906 C 99.199219 79.21875 112.121094 68.816406 128 68.816406 C 143.878906 68.816406 156.800781 79.21875 156.800781 92.003906 C 156.800781 93.308594 156.636719 94.621094 156.347656 95.917969 C 145.746094 91.230469 133.9375 91.214844 128 91.214844 C 122.0625 91.214844 110.253906 91.230469 99.652344 95.917969 C 99.363281 94.613281 99.199219 93.308594 99.199219 92.003906 Z M 84.800781 132.550781 C 84.800781 119.886719 88.5 110.933594 96.285156 105.25 L 96.308594 105.292969 L 99.386719 103.628906 C 105.761719 100.191406 114.125 98.171875 123.753906 97.714844 C 124.09375 97.703125 124.453125 97.699219 124.800781 97.6875 L 124.800781 196.578125 C 102.375 193.636719 84.800781 160.347656 84.800781 132.550781 Z M 131.199219 196.582031 L 131.199219 97.691406 C 131.546875 97.699219 131.90625 97.703125 132.246094 97.714844 C 141.875 98.171875 150.238281 100.191406 156.613281 103.628906 L 159.691406 105.292969 L 159.714844 105.25 C 167.5 110.9375 171.199219 119.886719 171.199219 132.550781 C 171.199219 160.347656 153.625 193.636719 131.199219 196.582031 Z M 131.199219 196.582031 "/>
</g>
</svg>
