<svg width="512" height="512" viewBox="0 0 512 512" fill="none" xmlns="http://www.w3.org/2000/svg">
<path d="M0 256.006C0 397.402 114.606 512.004 255.996 512C397.394 512.004 512 397.402 512 256.006C512.009 114.61 397.394 0 255.996 0C114.606 0 0 114.614 0 256.006Z" fill="#4F46E5"/>
<path d="M396.8 189.143V188.83C396.8 185.293 393.934 182.586 390.4 182.586C386.866 182.586 384 185.605 384 189.142C384 209.754 369.99 227.529 350.685 231.411C350.45 231.458 350.272 231.607 350.049 231.678C344.571 216.078 335.189 205.44 324.278 198.16C325.66 193.499 326.401 188.765 326.401 184.011C326.401 163.664 314.118 145.687 295.462 135.032C295.38 134.852 295.379 134.655 295.28 134.481C294.409 132.956 293.968 131.325 293.968 129.624C293.968 123.418 299.908 118.367 307.209 118.367C310.743 118.367 313.609 115.504 313.609 111.967C313.609 108.43 310.743 105.567 307.209 105.567C293.143 105.567 281.719 115.942 281.255 128.833C273.404 126.285 264.91 124.83 256.003 124.83C247.065 124.83 238.545 126.292 230.672 128.858C230.223 115.958 218.79 105.568 204.716 105.568C201.182 105.568 198.316 108.431 198.316 111.968C198.316 115.505 201.182 118.368 204.716 118.368C212.016 118.368 217.957 123.418 217.957 129.625C217.957 131.325 217.516 132.956 216.647 134.475C216.534 134.672 216.53 134.892 216.441 135.097C197.844 145.759 185.604 163.704 185.604 184.012C185.604 188.766 186.344 193.5 187.727 198.161C176.815 205.441 167.434 216.079 161.956 231.679C161.733 231.608 161.555 231.458 161.32 231.412C142.013 227.53 128.005 209.755 128.005 189.143V188.83C128.005 185.293 125.139 182.586 121.605 182.586C118.071 182.586 115.205 185.605 115.205 189.142C115.205 215.787 133.483 238.802 158.677 243.931C157.464 250.303 156.805 257.336 156.805 265.098C156.805 267.665 156.896 270.253 157.027 272.848C156.894 272.919 156.744 272.923 156.614 273.004L144.026 280.866C132.991 287.76 124.988 298.728 121.492 311.76L115.424 334.372C114.509 337.784 116.533 341.29 119.946 342.21C120.502 342.36 121.062 342.429 121.609 342.429C124.434 342.429 127.021 340.547 127.787 337.686L133.855 315.08C136.511 305.187 142.53 296.892 150.809 291.718L158.375 286.993C160.608 303.202 165.195 319.461 171.709 334.551L165.243 341.18C153.612 352.124 147.206 365.136 147.206 377.83V400.031C147.206 403.568 150.072 406.431 153.606 406.431C157.14 406.431 160.006 403.568 160.006 400.031V377.83C160.006 368.836 165.112 358.88 174.209 350.311L177.59 346.846C195.556 380.958 223.67 406.429 256.006 406.429C288.343 406.429 316.457 380.957 334.423 346.843L338 350.504C346.9 358.879 352.006 368.836 352.006 377.829V400.03C352.006 403.567 354.872 406.43 358.406 406.43C361.94 406.43 364.806 403.567 364.806 400.03V377.829C364.806 365.136 358.4 352.122 346.965 341.372L340.303 334.547C346.818 319.457 351.405 303.199 353.637 286.99L361.203 291.715C369.481 296.89 375.5 305.184 378.157 315.071L384.225 337.683C384.991 340.546 387.579 342.426 390.403 342.426C390.95 342.426 391.509 342.358 392.066 342.207C395.478 341.289 397.504 337.782 396.588 334.369L390.52 311.75C387.023 298.725 379.02 287.756 367.986 280.863L355.398 273.001C355.268 272.92 355.119 272.917 354.985 272.845C355.116 270.25 355.207 267.661 355.207 265.095C355.207 257.333 354.548 250.3 353.335 243.928C378.522 238.803 396.8 215.789 396.8 189.143ZM198.4 184.013C198.4 158.438 224.241 137.632 256 137.632C287.759 137.632 313.6 158.438 313.6 184.013C313.6 186.619 313.269 189.235 312.699 191.835C291.486 182.461 267.876 182.432 256 182.432C244.125 182.432 220.514 182.462 199.301 191.835C198.731 189.234 198.4 186.619 198.4 184.013ZM169.6 265.1C169.6 239.774 177.005 221.869 192.575 210.499L192.612 210.586L198.768 207.261C211.524 200.384 228.247 196.339 247.507 195.428C248.191 195.402 248.908 195.398 249.599 195.379V393.16C204.755 387.274 169.6 320.697 169.6 265.1ZM262.4 393.163V195.381C263.092 195.4 263.809 195.404 264.492 195.43C283.752 196.341 300.475 200.386 313.231 207.263L319.387 210.588L319.424 210.501C334.995 221.87 342.4 239.775 342.4 265.1C342.4 320.697 307.245 387.274 262.4 393.163Z" fill="#F4F6F9"/>
</svg>
