<?xml version="1.0" encoding="UTF-8"?>
<svg xmlns="http://www.w3.org/2000/svg" xmlns:xlink="http://www.w3.org/1999/xlink" width="192px" height="192px" viewBox="0 0 192 192" version="1.1">
<g id="surface1">
<path style=" stroke:none;fill-rule:nonzero;fill:rgb(30.980392%,27.45098%,89.803922%);fill-opacity:1;" d="M 0 96.003906 C 0 149.027344 42.976562 192 96 192 C 149.023438 192 192 149.027344 192 96.003906 C 192.003906 42.980469 149.023438 0 96 0 C 42.976562 0 0 42.980469 0 96.003906 Z M 0 96.003906 "/>
<path style=" stroke:none;fill-rule:nonzero;fill:rgb(95.686275%,96.470588%,97.647059%);fill-opacity:1;" d="M 148.800781 70.929688 L 148.800781 70.8125 C 148.800781 69.484375 147.726562 68.46875 146.398438 68.46875 C 145.074219 68.46875 144 69.601562 144 70.929688 C 144 78.65625 138.746094 85.324219 131.507812 86.777344 C 131.417969 86.796875 131.351562 86.851562 131.269531 86.878906 C 129.214844 81.027344 125.695312 77.039062 121.605469 74.308594 C 122.121094 72.5625 122.398438 70.785156 122.398438 69.003906 C 122.398438 61.375 117.792969 54.632812 110.796875 50.636719 C 110.765625 50.570312 110.765625 50.496094 110.730469 50.429688 C 110.402344 49.859375 110.238281 49.246094 110.238281 48.609375 C 110.238281 46.28125 112.464844 44.386719 115.203125 44.386719 C 116.527344 44.386719 117.601562 43.3125 117.601562 41.988281 C 117.601562 40.660156 116.527344 39.585938 115.203125 39.585938 C 109.929688 39.585938 105.644531 43.476562 105.46875 48.3125 C 102.527344 47.355469 99.339844 46.8125 96 46.8125 C 92.648438 46.8125 89.453125 47.359375 86.503906 48.320312 C 86.332031 43.484375 82.046875 39.589844 76.769531 39.589844 C 75.441406 39.589844 74.367188 40.660156 74.367188 41.988281 C 74.367188 43.3125 75.441406 44.386719 76.769531 44.386719 C 79.507812 44.386719 81.734375 46.28125 81.734375 48.609375 C 81.734375 49.246094 81.570312 49.859375 81.242188 50.429688 C 81.199219 50.503906 81.199219 50.585938 81.164062 50.660156 C 74.191406 54.660156 69.601562 61.390625 69.601562 69.003906 C 69.601562 70.789062 69.878906 72.5625 70.398438 74.308594 C 66.304688 77.039062 62.789062 81.03125 60.734375 86.878906 C 60.648438 86.851562 60.582031 86.796875 60.496094 86.78125 C 53.253906 85.324219 48 78.65625 48 70.929688 L 48 70.8125 C 48 69.484375 46.925781 68.46875 45.601562 68.46875 C 44.277344 68.46875 43.203125 69.601562 43.203125 70.929688 C 43.203125 80.921875 50.054688 89.550781 59.503906 91.472656 C 59.050781 93.863281 58.800781 96.5 58.800781 99.410156 C 58.800781 100.375 58.835938 101.34375 58.886719 102.316406 C 58.835938 102.34375 58.777344 102.347656 58.730469 102.375 L 54.007812 105.324219 C 49.871094 107.910156 46.871094 112.023438 45.558594 116.910156 L 43.285156 125.390625 C 42.941406 126.667969 43.699219 127.984375 44.980469 128.328125 C 45.1875 128.386719 45.398438 128.410156 45.601562 128.410156 C 46.664062 128.410156 47.632812 127.707031 47.921875 126.632812 L 50.195312 118.15625 C 51.191406 114.445312 53.449219 111.335938 56.554688 109.394531 L 59.390625 107.621094 C 60.226562 113.699219 61.949219 119.796875 64.390625 125.457031 L 61.964844 127.941406 C 57.605469 132.046875 55.203125 136.925781 55.203125 141.6875 L 55.203125 150.011719 C 55.203125 151.339844 56.277344 152.410156 57.601562 152.410156 C 58.925781 152.410156 60.003906 151.339844 60.003906 150.011719 L 60.003906 141.6875 C 60.003906 138.3125 61.917969 134.578125 65.328125 131.367188 L 66.597656 130.066406 C 73.332031 142.859375 83.875 152.410156 96.003906 152.410156 C 108.128906 152.410156 118.671875 142.859375 125.410156 130.066406 L 126.75 131.4375 C 130.085938 134.578125 132.003906 138.3125 132.003906 141.6875 L 132.003906 150.011719 C 132.003906 151.335938 133.078125 152.410156 134.402344 152.410156 C 135.726562 152.410156 136.800781 151.335938 136.800781 150.011719 L 136.800781 141.6875 C 136.800781 136.925781 134.398438 132.046875 130.113281 128.015625 L 127.613281 125.457031 C 130.058594 119.796875 131.777344 113.699219 132.613281 107.621094 L 135.449219 109.394531 C 138.554688 111.332031 140.8125 114.445312 141.808594 118.152344 L 144.085938 126.632812 C 144.371094 127.703125 145.34375 128.410156 146.402344 128.410156 C 146.605469 128.410156 146.816406 128.382812 147.023438 128.328125 C 148.304688 127.984375 149.0625 126.667969 148.71875 125.386719 L 146.445312 116.90625 C 145.132812 112.023438 142.132812 107.910156 137.996094 105.324219 L 133.273438 102.375 C 133.226562 102.34375 133.167969 102.34375 133.121094 102.316406 C 133.167969 101.34375 133.203125 100.371094 133.203125 99.410156 C 133.203125 96.5 132.957031 93.863281 132.5 91.472656 C 141.945312 89.550781 148.800781 80.921875 148.800781 70.929688 Z M 74.398438 69.003906 C 74.398438 59.414062 84.089844 51.613281 96 51.613281 C 107.910156 51.613281 117.601562 59.414062 117.601562 69.003906 C 117.601562 69.980469 117.476562 70.964844 117.261719 71.9375 C 109.308594 68.421875 100.453125 68.410156 96 68.410156 C 91.546875 68.410156 82.691406 68.421875 74.738281 71.9375 C 74.523438 70.960938 74.398438 69.980469 74.398438 69.003906 Z M 63.601562 99.414062 C 63.601562 89.914062 66.375 83.199219 72.214844 78.9375 L 72.230469 78.96875 L 74.539062 77.722656 C 79.320312 75.144531 85.59375 73.628906 92.816406 73.285156 C 93.070312 73.277344 93.339844 73.273438 93.601562 73.265625 L 93.601562 147.433594 C 76.78125 145.226562 63.601562 120.261719 63.601562 99.414062 Z M 98.398438 147.4375 L 98.398438 73.269531 C 98.660156 73.273438 98.929688 73.277344 99.183594 73.285156 C 106.40625 73.628906 112.679688 75.144531 117.460938 77.722656 L 119.769531 78.96875 L 119.785156 78.9375 C 125.625 83.203125 128.398438 89.914062 128.398438 99.414062 C 128.398438 120.261719 115.21875 145.226562 98.398438 147.4375 Z M 98.398438 147.4375 "/>
</g>
</svg>
